# ProBuilder 6.0.9
# https://unity3d.com/unity/features/worldbuilding/probuilder
# 6/15/2026 3:09:25 PM

mtllib ./Cylinder.mtl
o Cylinder

g Cylinder
v -3 -0.25 0
v -3 0.25 0
v -2.771638 -0.25 1.14805
v -2.771638 0.25 1.14805
v -2.12132 -0.25 2.12132
v -2.12132 0.25 2.12132
v -1.14805 -0.25 2.771638
v -1.14805 0.25 2.771638
v 1.311342E-07 -0.25 3
v 1.311342E-07 0.25 3
v 1.14805 -0.25 2.771639
v 1.14805 0.25 2.771639
v 2.12132 -0.25 2.12132
v 2.12132 0.25 2.12132
v 2.771638 -0.25 1.14805
v 2.771638 0.25 1.14805
v 3 -0.25 -2.622683E-07
v 3 0.25 -2.622683E-07
v 0 -0.25 0
v 0 0.25 0

vt -0.5852715 -0.25
vt -0.5852715 0.25
vt 0.5852705 -0.25
vt 0.5852705 0.25
vt -3 0
vt 3 0
vt -2.771638 1.14805
vt 2.771638 1.14805
vt -2.12132 2.12132
vt 2.12132 2.12132
vt -1.14805 2.771638
vt 1.14805 2.771638
vt 1.311342E-07 3
vt 0 0
vt 3 -0.25
vt 3 0.25
vt 0 0.25
vt -3 0.25
vt -3 -0.25
vt 0 -0.25

vn -0.9807853 0 0.1950905
vn -0.9238795 0 0.3826835
vn -0.7071068 0 0.7071068
vn -0.3826835 0 0.9238795
vn -6.077237E-08 0 1
vn 0.3826835 0 0.9238795
vn 0.7071068 0 0.7071068
vn 0.9238795 0 0.3826835
vn 0.9807853 0 0.1950904
vn 0 -1 0
vn 0 1 0
vn 0 0 -1

usemtl ProBuilderDefault
f 20/17/12 19/20/12 2/16/12
f 17/19/12 19/20/12 20/17/12
f 18/18/12 17/19/12 20/17/12
f 19/20/12 1/15/12 2/16/12
f 18/5/11 20/14/11 16/7/11
f 16/7/11 20/14/11 14/9/11
f 14/9/11 20/14/11 12/11/11
f 12/11/11 20/14/11 10/13/11
f 10/13/11 20/14/11 8/12/11
f 8/12/11 20/14/11 6/10/11
f 6/10/11 20/14/11 4/8/11
f 4/8/11 20/14/11 2/6/11
f 13/10/10 19/14/10 15/8/10
f 11/12/10 19/14/10 13/10/10
f 9/13/10 19/14/10 11/12/10
f 7/11/10 19/14/10 9/13/10
f 5/9/10 19/14/10 7/11/10
f 3/7/10 19/14/10 5/9/10
f 1/5/10 19/14/10 3/7/10
f 15/8/10 19/14/10 17/6/10
f 4/4/2 2/2/1 1/1/1
f 1/1/1 3/3/2 4/4/2
f 6/4/3 4/2/2 3/1/2
f 3/1/2 5/3/3 6/4/3
f 8/4/4 6/2/3 5/1/3
f 5/1/3 7/3/4 8/4/4
f 10/4/5 8/2/4 7/1/4
f 7/1/4 9/3/5 10/4/5
f 12/4/6 10/2/5 9/1/5
f 9/1/5 11/3/6 12/4/6
f 14/4/7 12/2/6 11/1/6
f 11/1/6 13/3/7 14/4/7
f 16/4/8 14/2/7 13/1/7
f 13/1/7 15/3/8 16/4/8
f 18/4/9 16/2/8 15/1/8
f 15/1/8 17/3/9 18/4/9

